<?xml version="1.0" encoding="UTF-8" standalone="no"?>
<!-- Created with Inkscape (http://www.inkscape.org/) -->

<svg
   xmlns:dc="http://purl.org/dc/elements/1.1/"
   xmlns:cc="http://creativecommons.org/ns#"
   xmlns:rdf="http://www.w3.org/1999/02/22-rdf-syntax-ns#"
   xmlns:svg="http://www.w3.org/2000/svg"
   xmlns="http://www.w3.org/2000/svg"
   xmlns:sodipodi="http://sodipodi.sourceforge.net/DTD/sodipodi-0.dtd"
   xmlns:inkscape="http://www.inkscape.org/namespaces/inkscape"
   width="24"
   height="24"
   id="svg2"
   version="1.1"
   inkscape:version="0.48.4 r9939"
   sodipodi:docname="close.svg"
   inkscape:export-filename="/home/chorton/GxSubOS/graphics/close.png"
   inkscape:export-xdpi="90"
   inkscape:export-ydpi="90">
  <defs
     id="defs4" />
  <sodipodi:namedview
     id="base"
     pagecolor="#ffffff"
     bordercolor="#666666"
     borderopacity="1.0"
     inkscape:pageopacity="0.0"
     inkscape:pageshadow="2"
     inkscape:zoom="24.875"
     inkscape:cx="12"
     inkscape:cy="12"
     inkscape:document-units="px"
     inkscape:current-layer="layer1"
     showgrid="false"
     inkscape:window-width="1215"
     inkscape:window-height="776"
     inkscape:window-x="65"
     inkscape:window-y="24"
     inkscape:window-maximized="1">
    <inkscape:grid
       type="xygrid"
       id="grid2985"
       empspacing="5"
       visible="true"
       enabled="true"
       snapvisiblegridlinesonly="true" />
  </sodipodi:namedview>
  <metadata
     id="metadata7">
    <rdf:RDF>
      <cc:Work
         rdf:about="">
        <dc:format>image/svg+xml</dc:format>
        <dc:type
           rdf:resource="http://purl.org/dc/dcmitype/StillImage" />
        <dc:title></dc:title>
      </cc:Work>
    </rdf:RDF>
  </metadata>
  <g
     inkscape:label="Layer 1"
     inkscape:groupmode="layer"
     id="layer1"
     transform="translate(0,-1028.3622)">
    <path
       style="fill:#00ffff;fill-opacity:0.39215687;stroke:#00ffff;stroke-width:1.38638890000000004;stroke-miterlimit:4;stroke-opacity:0;stroke-dasharray:none"
       d="M 7.09375 3.75 C 6.7393625 3.75 6.39655 3.8847 6.125 4.15625 L 4.15625 6.125 C 3.61315 6.6681 3.61315 7.55065 4.15625 8.09375 L 8.0625 12 L 4.15625 15.90625 C 3.61315 16.44935 3.61315 17.3319 4.15625 17.875 L 6.125 19.84375 C 6.6681 20.38685 7.55065 20.38685 8.09375 19.84375 L 12 15.9375 L 15.90625 19.84375 C 16.44935 20.38685 17.3319 20.38685 17.875 19.84375 L 19.84375 17.875 C 20.38685 17.3319 20.38685 16.44935 19.84375 15.90625 L 15.9375 12 L 19.84375 8.09375 C 20.38685 7.55065 20.38685 6.6681 19.84375 6.125 L 17.875 4.15625 C 17.3319 3.61315 16.44935 3.61315 15.90625 4.15625 L 12 8.0625 L 8.09375 4.15625 C 7.8222 3.8847 7.4481375 3.75 7.09375 3.75 z "
       transform="translate(0,1028.3622)"
       id="rect3769" />
    <path
       style="fill:#000000;fill-opacity:0.39215686;stroke:#00ffff;stroke-width:1.3863889;stroke-miterlimit:4;stroke-opacity:0;stroke-dasharray:none"
       d="m 7.0937499,1032.1122 c -0.354387,0 -0.72845,0.1347 -1,0.4063 l -1.9375,1.9687 c -0.485595,0.4856 -0.539013,1.2382 -0.15625,1.7813 0.045327,-0.064 0.098745,-0.13 0.15625,-0.1875 l 1.9375,-1.9688 c 0.27155,-0.2716 0.645613,-0.4062 1,-0.4062 0.354387,0 0.6972,0.1346 0.96875,0.4062 L 12,1038.0185 l 3.90625,-3.9063 c 0.5431,-0.5431 1.42565,-0.5431 1.96875,0 l 1.96875,1.9688 c 0.0575,0.058 0.110923,0.1231 0.15625,0.1875 0.382763,-0.5431 0.329345,-1.2957 -0.15625,-1.7813 l -1.96875,-1.9687 c -0.5431,-0.5431 -1.42565,-0.5431 -1.96875,0 L 12,1036.4247 8.0624999,1032.5185 c -0.27155,-0.2716 -0.614363,-0.4063 -0.96875,-0.4063 z m 0.15625,9.0625 -3.09375,3.0938 c -0.485595,0.4855 -0.539013,1.2381 -0.15625,1.7812 0.045327,-0.064 0.098745,-0.13 0.15625,-0.1875 l 3.90625,-3.9062 -0.8125,-0.7813 z m 9.5000001,0 -0.8125,0.7813 3.90625,3.9062 c 0.0575,0.057 0.110923,0.1232 0.15625,0.1875 0.382763,-0.5431 0.329345,-1.2957 -0.15625,-1.7812 L 16.75,1041.1747 z"
       id="rect2986"
       inkscape:connector-curvature="0" />
    <path
       id="path3770"
       d="m 16.90625,1050.1491 c 0.354387,0 0.72845,-0.1347 1,-0.4062 l 1.9375,-1.9688 c 0.485595,-0.4856 0.539013,-1.2382 0.15625,-1.7812 -0.04533,0.064 -0.09875,0.13 -0.15625,0.1875 l -1.9375,1.9687 c -0.27155,0.2716 -0.645613,0.4063 -1,0.4063 -0.354387,0 -0.6972,-0.1347 -0.96875,-0.4063 L 12,1044.2429 l -3.9062501,3.9062 c -0.5431,0.5431 -1.42565,0.5431 -1.96875,0 l -1.96875,-1.9687 c -0.0575,-0.057 -0.110923,-0.1232 -0.15625,-0.1875 -0.382763,0.543 -0.329345,1.2956 0.15625,1.7812 l 1.96875,1.9688 c 0.5431,0.5431 1.42565,0.5431 1.96875,0 L 12,1045.8366 l 3.9375,3.9063 c 0.27155,0.2715 0.614363,0.4062 0.96875,0.4062 z m -0.15625,-9.0625 3.09375,-3.0937 c 0.485595,-0.4856 0.539013,-1.2382 0.15625,-1.7813 -0.04533,0.064 -0.09875,0.13 -0.15625,0.1875 l -3.90625,3.9063 0.8125,0.7812 z m -9.5000001,0 0.8125,-0.7812 -3.90625,-3.9063 c -0.0575,-0.058 -0.110923,-0.1232 -0.15625,-0.1875 -0.382763,0.5431 -0.329345,1.2957 0.15625,1.7813 l 3.09375,3.0937 z"
       style="fill:#ffffff;fill-opacity:0.39215686;stroke:#00ffff;stroke-width:1.3863889;stroke-miterlimit:4;stroke-opacity:0;stroke-dasharray:none"
       inkscape:connector-curvature="0"
       inkscape:export-xdpi="90"
       inkscape:export-ydpi="90" />
  </g>
</svg>
