<?xml version="1.0" encoding="UTF-8" standalone="no"?>
<!-- Created with Inkscape (http://www.inkscape.org/) -->

<svg
   xmlns:dc="http://purl.org/dc/elements/1.1/"
   xmlns:cc="http://creativecommons.org/ns#"
   xmlns:rdf="http://www.w3.org/1999/02/22-rdf-syntax-ns#"
   xmlns:svg="http://www.w3.org/2000/svg"
   xmlns="http://www.w3.org/2000/svg"
   xmlns:sodipodi="http://sodipodi.sourceforge.net/DTD/sodipodi-0.dtd"
   xmlns:inkscape="http://www.inkscape.org/namespaces/inkscape"
   width="256"
   height="256"
   id="svg2"
   version="1.1"
   inkscape:version="0.48.4 r"
   sodipodi:docname="progress_spinner.svg"
   inkscape:export-filename="C:\Users\chorton\Documents\GitHub\GxSubOS\graphics\progress_spinner_256.png"
   inkscape:export-xdpi="90"
   inkscape:export-ydpi="90">
  <defs
     id="defs4" />
  <sodipodi:namedview
     id="base"
     pagecolor="#ffffff"
     bordercolor="#666666"
     borderopacity="1.0"
     inkscape:pageopacity="0.0"
     inkscape:pageshadow="2"
     inkscape:zoom="2.0546875"
     inkscape:cx="43.188001"
     inkscape:cy="128"
     inkscape:document-units="px"
     inkscape:current-layer="layer1"
     showgrid="true"
     inkscape:snap-object-midpoints="true"
     inkscape:snap-grids="false"
     inkscape:snap-center="false"
     inkscape:object-nodes="true"
     inkscape:window-width="1280"
     inkscape:window-height="738"
     inkscape:window-x="-8"
     inkscape:window-y="-8"
     inkscape:window-maximized="1">
    <inkscape:grid
       type="xygrid"
       id="grid2985"
       empspacing="8"
       visible="true"
       enabled="true"
       snapvisiblegridlinesonly="true" />
  </sodipodi:namedview>
  <metadata
     id="metadata7">
    <rdf:RDF>
      <cc:Work
         rdf:about="">
        <dc:format>image/svg+xml</dc:format>
        <dc:type
           rdf:resource="http://purl.org/dc/dcmitype/StillImage" />
        <dc:title></dc:title>
      </cc:Work>
    </rdf:RDF>
  </metadata>
  <g
     inkscape:label="Layer 1"
     inkscape:groupmode="layer"
     id="layer1"
     transform="translate(0,-796.36218)">
    <path
       transform="translate(8,804.36218)"
       style="fill:#00ffff;fill-opacity:0;stroke:none;stroke-width:2.01600002999999980;stroke-linejoin:round;stroke-miterlimit:4;stroke-opacity:0"
       d="M 54.639462,82.264078 120,44.528152 l 65.36054,37.735923 0,75.471845 L 120,195.47185 54.639464,157.73593 z"
       id="path2987" />
    <path
       sodipodi:type="arc"
       style="fill:#00ffff;fill-opacity:0.39215687;stroke:none;stroke-width:2.01600002999999980;stroke-linejoin:round;stroke-miterlimit:4;stroke-opacity:1;stroke-dasharray:none"
       id="path2989"
       sodipodi:cx="32"
       sodipodi:cy="32"
       sodipodi:rx="16"
       sodipodi:ry="16"
       d="m 48,32 c 0,8.836556 -7.163444,16 -16,16 -8.836556,0 -16,-7.163444 -16,-16 0,-8.836556 7.163444,-16 16,-16 8.836556,0 16,7.163444 16,16 z"
       transform="matrix(1.4006167,0,0,1.4006167,83.180266,804.0706)" />
    <path
       transform="matrix(1.4006167,0,0,1.4006167,83.180266,955.0143)"
       d="m 48,32 c 0,8.836556 -7.163444,16 -16,16 -8.836556,0 -16,-7.163444 -16,-16 0,-8.836556 7.163444,-16 16,-16 8.836556,0 16,7.163444 16,16 z"
       sodipodi:ry="16"
       sodipodi:rx="16"
       sodipodi:cy="32"
       sodipodi:cx="32"
       id="path2991"
       style="fill:#00ffff;fill-opacity:0.21568628;stroke:none;stroke-width:2.01600002999999980;stroke-linejoin:round;stroke-miterlimit:4;stroke-opacity:1;stroke-dasharray:none"
       sodipodi:type="arc" />
    <path
       sodipodi:type="arc"
       style="fill:#00ffff;fill-opacity:0.15686275;stroke:none;stroke-width:2.01600002999999980;stroke-linejoin:round;stroke-miterlimit:4;stroke-opacity:1;stroke-dasharray:none"
       id="path2993"
       sodipodi:cx="32"
       sodipodi:cy="32"
       sodipodi:rx="16"
       sodipodi:ry="16"
       d="m 48,32 c 0,8.836556 -7.163444,16 -16,16 -8.836556,0 -16,-7.163444 -16,-16 0,-8.836556 7.163444,-16 16,-16 8.836556,0 16,7.163444 16,16 z"
       transform="matrix(1.4006167,0,0,1.4006167,148.54081,917.27837)" />
    <path
       transform="matrix(1.4006167,0,0,1.4006167,17.81973,917.27838)"
       d="m 48,32 c 0,8.836556 -7.163444,16 -16,16 -8.836556,0 -16,-7.163444 -16,-16 0,-8.836556 7.163444,-16 16,-16 8.836556,0 16,7.163444 16,16 z"
       sodipodi:ry="16"
       sodipodi:rx="16"
       sodipodi:cy="32"
       sodipodi:cx="32"
       id="path2995"
       style="fill:#00ffff;fill-opacity:0.27450982;stroke:none;stroke-width:2.01600002999999980;stroke-linejoin:round;stroke-miterlimit:4;stroke-opacity:1;stroke-dasharray:none"
       sodipodi:type="arc" />
    <path
       sodipodi:type="arc"
       style="fill:#00ffff;fill-opacity:0.33333334;stroke:none;stroke-width:2.01600002999999980;stroke-linejoin:round;stroke-miterlimit:4;stroke-opacity:1;stroke-dasharray:none"
       id="path2997"
       sodipodi:cx="32"
       sodipodi:cy="32"
       sodipodi:rx="16"
       sodipodi:ry="16"
       d="m 48,32 c 0,8.836556 -7.163444,16 -16,16 -8.836556,0 -16,-7.163444 -16,-16 0,-8.836556 7.163444,-16 16,-16 8.836556,0 16,7.163444 16,16 z"
       transform="matrix(1.4006167,0,0,1.4006167,17.819728,841.80652)" />
    <path
       transform="matrix(1.4006167,0,0,1.4006167,148.54081,841.80652)"
       d="m 48,32 c 0,8.836556 -7.163444,16 -16,16 -8.836556,0 -16,-7.163444 -16,-16 0,-8.836556 7.163444,-16 16,-16 8.836556,0 16,7.163444 16,16 z"
       sodipodi:ry="16"
       sodipodi:rx="16"
       sodipodi:cy="32"
       sodipodi:cx="32"
       id="path2999"
       style="fill:#00ffff;fill-opacity:0.09803922;stroke:none;stroke-width:2.01600002999999980;stroke-linejoin:round;stroke-miterlimit:4;stroke-opacity:1;stroke-dasharray:none"
       sodipodi:type="arc" />
  </g>
</svg>
