<?xml version="1.0" encoding="UTF-8" standalone="no"?>
<!-- Created with Inkscape (http://www.inkscape.org/) -->

<svg
   xmlns:dc="http://purl.org/dc/elements/1.1/"
   xmlns:cc="http://creativecommons.org/ns#"
   xmlns:rdf="http://www.w3.org/1999/02/22-rdf-syntax-ns#"
   xmlns:svg="http://www.w3.org/2000/svg"
   xmlns="http://www.w3.org/2000/svg"
   xmlns:sodipodi="http://sodipodi.sourceforge.net/DTD/sodipodi-0.dtd"
   xmlns:inkscape="http://www.inkscape.org/namespaces/inkscape"
   width="24"
   height="24"
   id="svg2"
   version="1.1"
   inkscape:version="0.48.4 r9939"
   sodipodi:docname="resize.svg"
   inkscape:export-filename="/home/christopher/GxSubOS/graphics/resize.png"
   inkscape:export-xdpi="90"
   inkscape:export-ydpi="90">
  <defs
     id="defs4" />
  <sodipodi:namedview
     id="base"
     pagecolor="#ffffff"
     bordercolor="#666666"
     borderopacity="1.0"
     inkscape:pageopacity="0.0"
     inkscape:pageshadow="2"
     inkscape:zoom="24.875"
     inkscape:cx="12"
     inkscape:cy="12"
     inkscape:document-units="px"
     inkscape:current-layer="layer1"
     showgrid="true"
     inkscape:window-width="1301"
     inkscape:window-height="744"
     inkscape:window-x="65"
     inkscape:window-y="24"
     inkscape:window-maximized="1">
    <inkscape:grid
       type="xygrid"
       id="grid2985"
       empspacing="5"
       visible="true"
       enabled="true"
       snapvisiblegridlinesonly="true" />
  </sodipodi:namedview>
  <metadata
     id="metadata7">
    <rdf:RDF>
      <cc:Work
         rdf:about="">
        <dc:format>image/svg+xml</dc:format>
        <dc:type
           rdf:resource="http://purl.org/dc/dcmitype/StillImage" />
        <dc:title></dc:title>
      </cc:Work>
    </rdf:RDF>
  </metadata>
  <g
     inkscape:label="Layer 1"
     inkscape:groupmode="layer"
     id="layer1"
     transform="translate(0,-1028.3622)">
    <path
       style="fill:#00ffff;fill-opacity:0.19607843;stroke:#00ffff;stroke-width:0.80000000999999998;stroke-miterlimit:4;stroke-opacity:0;stroke-dasharray:none"
       d="m 4.8,1032.3622 c -0.4432,0 -0.8,0.3568 -0.8,0.8 l 0,12.375 3.2,-3.2 0,-5.975 c 0,-0.4432 0.3568,-0.8 0.8,-0.8 l 5.975,0 3.2,-3.2 -12.375,0 z m 15.2,2.825 -3.2,3.2 0,5.975 c 0,0.4432 -0.3568,0.8 -0.8,0.8 l -5.975,0 -3.2,3.2 12.375,0 c 0.4432,0 0.8,-0.3568 0.8,-0.8 l 0,-12.375 z"
       id="path3791"
       inkscape:connector-curvature="0" />
    <path
       style="fill:#000000;fill-opacity:0.39215687;stroke:#00ffff;stroke-width:0.80000000999999998;stroke-miterlimit:4;stroke-opacity:0;stroke-dasharray:none"
       d="m 4.8125,1032.3622 c -0.4432,0 -0.8125,0.338 -0.8125,0.7812 l 0,1.0313 c 0,-0.4432 0.3693,-0.8125 0.8125,-0.8125 l 11.375,0 1,-1 -12.375,0 z m 15.1875,2.8125 -3.1875,3.2187 0,1 3.1875,-3.2187 0,-1 z m -3.1875,9.1875 c 0,0.4432 -0.3693,0.7812 -0.8125,0.7812 l -5.96875,0 -3.21875,3.2188 1,0 2.21875,-2.1875 5.96875,0 c 0.4432,0 0.8125,-0.3693 0.8125,-0.8125 l 0,-1 z"
       id="path2992"
       inkscape:connector-curvature="0" />
    <path
       style="fill:#ffffff;fill-opacity:0.19607843;stroke:#00ffff;stroke-width:0.80000000999999998;stroke-miterlimit:4;stroke-opacity:0;stroke-dasharray:none"
       d="m 16.125,1033.3672 -2.15625,2.1563 -5.96875,0 c -0.4432,0 -0.8125,0.3693 -0.8125,0.8125 l 0,1.0312 c 0,-0.4432 0.3693,-0.8125 0.8125,-0.8125 l 5.96875,0 3.03125,-3.1925 0,-1 z m -8.9375,8.9375 -3.1875,3.2188 0,1 3.1875,-3.1875 z M 20,1047.5235 c 0,0.4432 -0.3693,0.8125 -0.8125,0.8125 l -11.34375,0 -0.84375,0.026 0,1 12.1875,0 c 0.4432,2e-4 0.8125,-0.3693 0.8125,-0.8125 z"
       id="path3789"
       inkscape:connector-curvature="0"
       sodipodi:nodetypes="ccsscsccccccccccscccssc"
       inkscape:export-xdpi="90"
       inkscape:export-ydpi="90" />
  </g>
</svg>
