<?xml version="1.0" encoding="UTF-8" standalone="no"?>
<!-- Created with Inkscape (http://www.inkscape.org/) -->

<svg
   xmlns:dc="http://purl.org/dc/elements/1.1/"
   xmlns:cc="http://creativecommons.org/ns#"
   xmlns:rdf="http://www.w3.org/1999/02/22-rdf-syntax-ns#"
   xmlns:svg="http://www.w3.org/2000/svg"
   xmlns="http://www.w3.org/2000/svg"
   xmlns:sodipodi="http://sodipodi.sourceforge.net/DTD/sodipodi-0.dtd"
   xmlns:inkscape="http://www.inkscape.org/namespaces/inkscape"
   width="48"
   height="48"
   id="svg2"
   version="1.1"
   inkscape:version="0.48.4 r"
   sodipodi:docname="shutdown.svg"
   inkscape:export-filename="C:\Users\chorton\Documents\GitHub\GxSubOS\graphics\shutdown.png"
   inkscape:export-xdpi="90"
   inkscape:export-ydpi="90">
  <defs
     id="defs4" />
  <sodipodi:namedview
     id="base"
     pagecolor="#ffffff"
     bordercolor="#666666"
     borderopacity="1.0"
     inkscape:pageopacity="0.0"
     inkscape:pageshadow="2"
     inkscape:zoom="10.958333"
     inkscape:cx="12.547529"
     inkscape:cy="24"
     inkscape:document-units="px"
     inkscape:current-layer="layer1"
     showgrid="true"
     inkscape:window-width="1280"
     inkscape:window-height="738"
     inkscape:window-x="-8"
     inkscape:window-y="-8"
     inkscape:window-maximized="1">
    <inkscape:grid
       type="xygrid"
       id="grid2985"
       empspacing="5"
       visible="true"
       enabled="true"
       snapvisiblegridlinesonly="true" />
  </sodipodi:namedview>
  <metadata
     id="metadata7">
    <rdf:RDF>
      <cc:Work
         rdf:about="">
        <dc:format>image/svg+xml</dc:format>
        <dc:type
           rdf:resource="http://purl.org/dc/dcmitype/StillImage" />
        <dc:title></dc:title>
      </cc:Work>
    </rdf:RDF>
  </metadata>
  <g
     inkscape:label="Layer 1"
     inkscape:groupmode="layer"
     id="layer1"
     transform="translate(0,-1004.3622)">
    <g
       id="g2985"
       transform="matrix(2,0,0,2,0,-1051.3927)">
      <path
         inkscape:connector-curvature="0"
         id="path2987"
         transform="translate(0,1028.3622)"
         d="M 10,4.25 C 6.547024,5.1363558 4,8.2705315 4,12 c 0,4.418278 3.581722,8 8,8 4.418278,0 8,-3.581722 8,-8 0,-3.7294685 -2.547024,-6.8636442 -6,-7.75 l 0,2.21875 C 16.275138,7.2899558 17.90625,9.4436356 17.90625,12 17.90625,15.25911 15.25911,17.90625 12,17.90625 8.74089,17.90625 6.09375,15.25911 6.09375,12 6.09375,9.4436356 7.7248619,7.2899558 10,6.46875 L 10,4.25 z"
         style="fill:#00ffff;fill-opacity:1;stroke:none" />
      <rect
         ry="0"
         y="1031.3927"
         x="11"
         height="10"
         width="2"
         id="rect2994"
         style="fill:#00ffff;fill-opacity:1;stroke:none" />
    </g>
  </g>
</svg>
